<?xml version="1.0" encoding="utf-8"?>
<!-- Generator: Adobe Illustrator 19.1.0, SVG Export Plug-In . SVG Version: 6.00 Build 0)  -->
<svg version="1.1" id="Layer_1" xmlns="http://www.w3.org/2000/svg" xmlns:xlink="http://www.w3.org/1999/xlink" x="0px" y="0px"
	 viewBox="298.9 339.2 512.7 115.5" style="enable-background:new 298.9 339.2 512.7 115.5;" xml:space="preserve">
<style type="text/css">
	.st0{fill:url(#SVGID_1_);}
	.st1{fill:url(#SVGID_2_);}
	.st2{fill:url(#SVGID_3_);}
	.st3{fill:none;}
	.st4{enable-background:new    ;}
</style>
<g>
	
		<linearGradient id="SVGID_1_" gradientUnits="userSpaceOnUse" x1="338.2498" y1="341.8926" x2="371.3783" y2="394.4112" gradientTransform="matrix(1 0 0 -1 0 797.4)">
		<stop  offset="0.1133" style="stop-color:#C6DE89"/>
		<stop  offset="0.3134" style="stop-color:#92BC71"/>
		<stop  offset="0.6278" style="stop-color:#539453"/>
		<stop  offset="0.8666" style="stop-color:#297E43"/>
		<stop  offset="1" style="stop-color:#11773D"/>
	</linearGradient>
	<path class="st0" d="M308.4,428.2l32.2,18.6l9.4,5.4c2.8,1.6,6,2.5,9.4,2.5c3.4,0,6.7-0.9,9.4-2.5l25.3-14.6
		c5.6-3.3,9.4-9.4,9.4-16.3v-11.4l-21.8-13.5l-41.2,23.8l-13.6,7.9c-2.7,1.5-5.9,2.5-9.3,2.5C314.4,430.6,311.2,429.7,308.4,428.2
		L308.4,428.2z"/>
	
		<linearGradient id="SVGID_2_" gradientUnits="userSpaceOnUse" x1="340.6119" y1="417.35" x2="403.5119" y2="417.35" gradientTransform="matrix(1 0 0 -1 0 797.4)">
		<stop  offset="0.2266" style="stop-color:#11773D"/>
		<stop  offset="0.3348" style="stop-color:#227C41"/>
		<stop  offset="0.5004" style="stop-color:#428A4C"/>
		<stop  offset="0.7027" style="stop-color:#6EA460"/>
		<stop  offset="0.9321" style="stop-color:#ADCD7D"/>
		<stop  offset="1" style="stop-color:#C6DE89"/>
	</linearGradient>
	<path class="st1" d="M403.6,372.8v11.1v37c0-7-3.8-13.1-9.4-16.4l-13.1-7.6l-40.4-23.4v-26.2l10.4-6c2.6-1.3,5.5-2.1,8.6-2.1
		c3.4,0,6.7,0.9,9.4,2.5l24.7,14.3C399.7,359.4,403.6,365.6,403.6,372.8L403.6,372.8z"/>
	
		<linearGradient id="SVGID_3_" gradientUnits="userSpaceOnUse" x1="323.7993" y1="386.9741" x2="323.9564" y2="437.0017" gradientTransform="matrix(1 0 0 -1 0 797.4)">
		<stop  offset="0" style="stop-color:#11773D"/>
		<stop  offset="1" style="stop-color:#C6DE89"/>
	</linearGradient>
	<path class="st2" d="M308.4,428.2c-5.7-3.2-9.5-9.3-9.5-16.3v-29.6c0-6.6,3.4-12.4,8.5-15.8l10.5-6l31.1-17.9
		c-5,3.4-8.4,9.2-8.4,15.8v62l-13.6,7.9c-2.7,1.6-5.9,2.5-9.3,2.5C314.4,430.6,311.2,429.7,308.4,428.2L308.4,428.2z"/>
</g>
<g>
	<path d="M734.2,375.5h-21.1c-0.5,0-1-0.4-1-1v-12.6l-8.5,1.5v46.7c0,5.6,0.5,12.5,4,17.1c3.7,4.7,9.6,5.7,15.2,5.7
		c4.7,0,8.9-0.9,13.3-2.7l-1.6-6.8c-2.1,0.8-4.2,1.6-6.5,2c-2.9,0.4-6.6,0.5-9.3-0.5c-6.1-2-6.7-9.4-6.7-14.9v-26.8c0-0.5,0.4-1,1-1
		h21.1L734.2,375.5L734.2,375.5z"/>
	<path d="M633.2,403.6c0,5.7-1.1,11.6-4.6,16.2c-3.2,4.2-7.6,6.1-12.8,6.1c-5.2,0-9.6-2-12.8-6.1c-3.1-4-4.6-9.4-4.6-16.2
		c0-6.8,1.5-12.2,4.6-16.2c3.2-4.2,7.6-6.1,12.8-6.1c5.2,0,9.6,2,12.8,6.1C632.2,392.1,633.2,398,633.2,403.6L633.2,403.6z
		 M641.7,410.1c1.5-9.6-0.3-20.6-6.9-27.9c-4.9-5.4-11.6-8.1-18.9-8.1c-7.3,0-14,2.6-18.9,8.1c-5.3,5.8-7.4,13.7-7.4,21.5
		s2.1,15.6,7.4,21.5c4.9,5.5,11.6,8.1,18.9,8.1c7.3,0,14-2.6,18.9-8.1C638.5,421,640.8,415.6,641.7,410.1L641.7,410.1z"/>
	<path d="M509.1,374.1c-4.8,0-11.2,0.6-15.8,2.2l1,6.7c0.4-0.1,0.9-0.3,1.4-0.4c1-0.2,2.1-0.5,3.4-0.7c2.6-0.5,5.7-0.7,9.2-0.7
		c3.4,0,6.6,0.6,9.4,2.7c2.1,1.7,3.5,4.1,4.1,6.8c0.3,1.5,0.9,7,0.6,8.4c-0.1,0.5-0.6,0.8-1.2,0.7c-2.7-0.7-6.1-1.2-8.8-1.4
		c-3.5-0.2-7.3,0.2-10.7,0.9c-3.7,0.8-7.6,2.5-10.3,5.3c-2.9,3-4,6.6-4,10.7c0,5.3,1.5,10.4,6,13.6c4.4,3.2,10.4,4,15.6,4
		c4.7,0,9.3-0.4,14-1c2.6-0.3,5.2-0.7,7.8-1.1v-35.5c0-5.4-0.9-11.2-4.6-15.4c-1.6-1.9-3.8-3.3-6.6-4.3
		C516.1,374.4,512.5,374.1,509.1,374.1L509.1,374.1z M510,426.2c-3.4,0-7.2-0.5-10.2-2.3c-2.7-1.6-4-4.5-4-8.6c0-4,2-6.9,5.6-8.6
		c2.5-1.2,5-1.6,7.7-1.7c3.2-0.2,9.6-0.1,12.5,1.3c0.4,0.1,0.6,0.5,0.6,0.9v17.3c0,0.4-0.3,0.8-0.7,0.9
		C518.1,426.2,513.6,426.2,510,426.2L510,426.2z"/>
	<path d="M697.8,403.8c0-7.8-2.1-15.8-7.7-21.6c-5.4-5.6-12.8-7.9-20.5-7.9c-7.5,0-13.8,1.1-21,2.8v75.3h8.5v-22.3
		c0-0.7,0.8-1.2,1.5-0.8c3.9,2.5,9.5,3.7,14.1,3.7c7.3,0,13.8-2.5,18.6-8.2C696,419.1,697.8,411.2,697.8,403.8L697.8,403.8z
		 M687.5,394.5c0.9,2.7,1.3,5.8,1.3,9.3c0,4-0.5,8.6-2.2,12.3c-2.9,6.6-8.4,9.8-15.4,9.8c-4.7,0-10.2-1.7-13.8-4.6
		c-0.3-0.2-0.4-0.5-0.4-0.8v-36.7c0-0.4,0.3-0.8,0.7-0.9c3.7-1,8-1.2,11.8-1.2C678,381.7,684.8,386.1,687.5,394.5L687.5,394.5z"/>
	<path d="M784,403.6c0,5.7-1.1,11.6-4.6,16.2c-3.2,4.2-7.5,6.1-12.8,6.1c-5.2,0-9.6-2-12.8-6.1c-3.1-4-4.6-9.4-4.6-16.2
		c0-6.8,1.5-12.2,4.6-16.2c3.2-4.2,7.6-6.1,12.8-6.1s9.6,2,12.8,6.1C783,392.1,784,398,784,403.6L784,403.6z M792.5,410.1
		c1.5-9.6-0.3-20.6-6.9-27.9c-4.9-5.4-11.6-8.1-18.9-8.1c-7.3,0-14,2.6-18.9,8.1c-5.3,5.8-7.4,13.7-7.4,21.5s2.1,15.6,7.4,21.5
		c4.9,5.5,11.7,8.1,18.9,8.1c7.3,0,14-2.6,18.9-8.1C789.3,421,791.6,415.6,792.5,410.1L792.5,410.1z"/>
	<path d="M451.2,367.9c1.7-0.1,3.6-0.1,5.7-0.1c2.6,0,5.2,0.2,7.8,0.6c2.3,0.4,4.6,1.1,6.6,2.3c1.9,1.1,3.5,2.7,4.7,4.6
		c1.3,2.2,1.7,4.8,1.7,7.3c0,3.9-0.9,7.4-3.7,10.2c-1.7,1.7-3.8,2.7-6,3.5c-2.7,0.9-5.6,1.2-8.4,1.5c-2.7,0.2-5.5,0.2-8.2,0.2
		c-1.7,0-3.4,0-5.1,0v-29.8C447.9,368.1,449.5,368,451.2,367.9L451.2,367.9z M469.3,362c-5.8-1.4-11.8-1.6-17.8-1.3
		c-4.6,0.2-9.3,0.5-13.8,1.5v69.5h8.5V405c5.2,0,10.7,0.2,15.9-0.3c7-0.6,14.9-2.4,19.9-7.8c3.6-4,4.8-8.9,4.8-14.1
		c0-5.3-1.4-10.1-4.7-13.8C478.7,365.3,474,363.1,469.3,362L469.3,362z"/>
	<path d="M538,377v54.7h8.5v-48.1c0-0.5,0.3-0.9,0.8-0.9c3.8-0.8,8-1.1,11.8-1.1c4.6,0,9.3,0.9,12.2,4.9c2.2,3,2.8,7.2,3.1,10.8
		c0.1,1.5,0.2,3.2,0.2,5v29.4h8.5V400c0-2-0.1-3.8-0.3-5.6c-0.5-4.7-1.5-9.3-4.5-13.1c-4.4-5.6-11.3-7.1-18.1-7.1
		C552.4,374.3,545.5,375.2,538,377L538,377z"/>
</g>
<line class="st3" x1="381.8" y1="398" x2="807.7" y2="398"/>
<line class="st3" x1="381.8" y1="398" x2="845" y2="398"/>
<g class="st4">
	<path d="M799.1,372.9h-2.5V372h6v0.9h-2.5v7.2h-1.1V372.9z"/>
	<path d="M810.4,376.6c-0.1-1.1-0.1-2.5-0.1-3.5h0c-0.3,0.9-0.6,2-1,3.1l-1.4,3.9H807l-1.3-3.8c-0.4-1.1-0.7-2.2-0.9-3.1h0
		c0,1-0.1,2.4-0.2,3.6l-0.2,3.5h-1l0.6-8.1h1.3l1.4,3.9c0.3,1,0.6,1.9,0.8,2.7h0c0.2-0.8,0.5-1.7,0.9-2.7l1.4-3.9h1.3l0.5,8.1h-1
		L810.4,376.6z"/>
</g>
</svg>
